<svg xmlns="http://www.w3.org/2000/svg" xmlns:xlink="http://www.w3.org/1999/xlink" width="1920" zoomAndPan="magnify" viewBox="0 0 1440 809.999993" height="1080" preserveAspectRatio="xMidYMid meet" version="1.0"><defs><g/></defs><rect x="-144" width="1728" fill="#ffffff" y="-80.999999" height="971.999992" fill-opacity="1"/><rect x="-144" width="1728" fill="#ffffff" y="-80.999999" height="971.999992" fill-opacity="1"/><rect x="-144" width="1728" fill="#ffffff" y="-80.999999" height="971.999992" fill-opacity="1"/><g fill="#272727" fill-opacity="1"><g transform="translate(-15.257012, 546.292142)"><g><path d="M 29.261719 0 C 29.261719 -16.023438 29.261719 -31.558594 29.261719 -46.605469 C 29.261719 -61.65625 29.261719 -78.515625 29.261719 -97.183594 L 29.261719 -198.339844 C 29.261719 -217.566406 29.261719 -234.914062 29.261719 -250.378906 C 29.261719 -265.847656 29.261719 -281.730469 29.261719 -298.03125 C 38.316406 -298.03125 49.011719 -298.03125 61.339844 -298.03125 C 73.671875 -298.03125 86.875 -298.03125 100.945312 -298.03125 C 115.019531 -298.03125 129.230469 -298.03125 143.582031 -298.03125 C 167.824219 -298.03125 188.34375 -295.351562 205.132812 -289.984375 C 221.921875 -284.621094 234.671875 -275.667969 243.378906 -263.128906 C 252.085938 -250.589844 256.441406 -233.519531 256.441406 -211.925781 C 256.441406 -194.785156 253.0625 -179.390625 246.304688 -165.734375 C 239.546875 -152.082031 228.714844 -141.28125 213.804688 -133.339844 C 198.898438 -125.398438 179.390625 -121.429688 155.285156 -121.429688 L 181.828125 -146.507812 L 222.375 -86.734375 C 228.644531 -77.539062 235.332031 -67.679688 242.4375 -57.160156 C 249.542969 -46.640625 256.476562 -36.402344 263.234375 -26.4375 C 269.992188 -16.476562 275.949219 -7.664062 281.101562 0 L 203.148438 0 C 195.621094 -11.703125 188.378906 -22.921875 181.410156 -33.648438 C 174.445312 -44.378906 167.6875 -54.828125 161.136719 -65 L 112.859375 -141.074219 L 153.613281 -109.933594 L 84.433594 -109.933594 L 84.433594 -159.046875 L 134.175781 -159.046875 C 145.324219 -159.046875 154.695312 -160.40625 162.289062 -163.125 C 169.882812 -165.839844 175.628906 -170.472656 179.53125 -177.023438 C 183.429688 -183.570312 185.382812 -192.558594 185.382812 -203.984375 C 185.382812 -212.480469 184.128906 -219.34375 181.621094 -224.570312 C 179.113281 -229.792969 175.734375 -233.871094 171.484375 -236.796875 C 167.234375 -239.722656 162.496094 -241.671875 157.273438 -242.648438 C 152.046875 -243.621094 146.785156 -244.109375 141.492188 -244.109375 L 47.859375 -244.109375 L 96.765625 -287.164062 C 96.765625 -270.304688 96.765625 -254.175781 96.765625 -238.78125 C 96.765625 -223.386719 96.765625 -206.28125 96.765625 -187.472656 L 96.765625 -97.183594 C 96.765625 -78.515625 96.765625 -61.65625 96.765625 -46.605469 C 96.765625 -31.558594 96.765625 -16.023438 96.765625 0 Z M 29.261719 0 "/></g></g></g><g fill="#272727" fill-opacity="1"><g transform="translate(243.274808, 546.292142)"><g><path d="M 85.480469 5.644531 C 64.582031 5.644531 48.765625 -0.558594 38.039062 -12.957031 C 27.308594 -25.359375 21.945312 -43.820312 21.945312 -68.34375 C 21.945312 -77.679688 21.945312 -85.757812 21.945312 -92.585938 C 21.945312 -99.414062 21.945312 -106.449219 21.945312 -113.695312 C 21.945312 -127.488281 21.945312 -139.644531 21.945312 -150.164062 C 21.945312 -160.683594 21.945312 -170.578125 21.945312 -179.84375 C 21.945312 -189.109375 21.945312 -198.6875 21.945312 -208.582031 L 84.433594 -210.460938 C 84.433594 -195.554688 84.433594 -180.886719 84.433594 -166.46875 C 84.433594 -152.046875 84.433594 -137.101562 84.433594 -121.636719 L 84.433594 -86.945312 C 84.433594 -74.820312 86.457031 -65.660156 90.496094 -59.460938 C 94.535156 -53.261719 101.78125 -50.160156 112.230469 -50.160156 C 117.945312 -50.160156 123.273438 -51.378906 128.222656 -53.816406 C 133.167969 -56.253906 137.660156 -59.53125 141.699219 -63.640625 C 145.742188 -67.75 149.433594 -72.3125 152.777344 -77.328125 L 152.777344 -121.636719 C 152.777344 -137.101562 152.777344 -151.769531 152.777344 -165.632812 C 152.777344 -179.496094 152.777344 -193.8125 152.777344 -208.582031 L 215.269531 -208.582031 C 215.269531 -193.8125 215.269531 -179.179688 215.269531 -164.691406 C 215.269531 -150.199219 215.269531 -133.203125 215.269531 -113.695312 L 215.269531 -90.289062 C 215.269531 -73.011719 215.269531 -57.371094 215.269531 -43.367188 C 215.269531 -29.363281 215.269531 -14.910156 215.269531 0 L 162.808594 0 L 160.09375 -33.230469 L 154.660156 -33.230469 C 150.0625 -26.542969 144.453125 -20.238281 137.835938 -14.316406 C 131.214844 -8.394531 123.554688 -3.585938 114.84375 0.105469 C 106.136719 3.796875 96.347656 5.644531 85.480469 5.644531 Z M 85.480469 5.644531 "/></g></g></g><g fill="#272727" fill-opacity="1"><g transform="translate(451.228775, 546.292142)"><g><path d="M 25.707031 0 C 25.707031 -14.910156 25.707031 -29.363281 25.707031 -43.367188 C 25.707031 -57.371094 25.707031 -73.011719 25.707031 -90.289062 L 25.707031 -111.1875 C 25.707031 -127.210938 25.707031 -143.304688 25.707031 -159.464844 C 25.707031 -175.628906 25.707031 -192 25.707031 -208.582031 L 78.164062 -211.714844 L 80.882812 -175.558594 L 86.109375 -175.558594 C 90.84375 -182.246094 96.417969 -188.550781 102.828125 -194.472656 C 109.238281 -200.394531 116.65625 -205.167969 125.085938 -208.789062 C 133.515625 -212.414062 143.09375 -214.222656 153.824219 -214.222656 C 169.847656 -214.222656 182.28125 -210.21875 191.128906 -202.207031 C 199.976562 -194.195312 205.933594 -182.664062 209 -167.617188 L 213.179688 -166.988281 C 214.015625 -162.949219 214.675781 -158.734375 215.164062 -154.34375 C 215.652344 -149.957031 215.894531 -145.324219 215.894531 -140.445312 C 215.894531 -131.25 215.894531 -122.71875 215.894531 -114.84375 C 215.894531 -106.972656 215.894531 -98.785156 215.894531 -90.289062 C 215.894531 -73.289062 215.894531 -57.71875 215.894531 -43.578125 C 215.894531 -29.433594 215.894531 -14.910156 215.894531 0 L 153.40625 0 C 153.40625 -14.910156 153.40625 -29.328125 153.40625 -43.261719 C 153.40625 -57.195312 153.40625 -71.757812 153.40625 -86.945312 L 153.40625 -120.382812 C 153.40625 -132.644531 151.488281 -141.875 147.65625 -148.074219 C 143.824219 -154.277344 137.035156 -157.375 127.28125 -157.375 C 121.566406 -157.375 116.34375 -156.121094 111.605469 -153.613281 C 106.867188 -151.105469 102.546875 -147.796875 98.648438 -143.6875 C 94.746094 -139.578125 91.261719 -135.082031 88.199219 -130.207031 L 88.199219 -86.945312 C 88.199219 -71.339844 88.199219 -56.671875 88.199219 -42.949219 C 88.199219 -29.226562 88.199219 -14.910156 88.199219 0 Z M 280.265625 0 C 280.265625 -14.910156 280.265625 -29.328125 280.265625 -43.261719 C 280.265625 -57.195312 280.265625 -71.757812 280.265625 -86.945312 L 280.265625 -120.382812 C 280.265625 -132.644531 278.386719 -141.875 274.625 -148.074219 C 270.863281 -154.277344 264.035156 -157.375 254.140625 -157.375 C 248.429688 -157.375 243.203125 -156.15625 238.46875 -153.71875 C 233.730469 -151.28125 229.375 -148.007812 225.40625 -143.894531 C 221.433594 -139.785156 217.917969 -135.222656 214.851562 -130.207031 L 205.445312 -175.140625 L 210.878906 -175.140625 C 215.894531 -181.96875 221.746094 -188.378906 228.4375 -194.367188 C 235.125 -200.359375 242.820312 -205.167969 251.53125 -208.789062 C 260.238281 -212.414062 270.027344 -214.222656 280.894531 -214.222656 C 301.65625 -214.222656 317.15625 -207.988281 327.398438 -195.519531 C 337.636719 -183.046875 342.757812 -164.691406 342.757812 -140.445312 C 342.757812 -131.25 342.757812 -122.71875 342.757812 -114.84375 C 342.757812 -106.972656 342.757812 -98.785156 342.757812 -90.289062 C 342.757812 -73.289062 342.757812 -57.71875 342.757812 -43.578125 C 342.757812 -29.433594 342.757812 -14.910156 342.757812 0 Z M 280.265625 0 "/></g></g></g><g fill="#272727" fill-opacity="1"><g transform="translate(785.418303, 546.292142)"><g><path d="M 25.707031 0 C 25.707031 -14.910156 25.707031 -29.363281 25.707031 -43.367188 C 25.707031 -57.371094 25.707031 -73.011719 25.707031 -90.289062 L 25.707031 -111.1875 C 25.707031 -127.210938 25.707031 -143.304688 25.707031 -159.464844 C 25.707031 -175.628906 25.707031 -192 25.707031 -208.582031 L 78.164062 -211.714844 L 80.882812 -175.558594 L 86.109375 -175.558594 C 90.84375 -182.246094 96.417969 -188.550781 102.828125 -194.472656 C 109.238281 -200.394531 116.65625 -205.167969 125.085938 -208.789062 C 133.515625 -212.414062 143.09375 -214.222656 153.824219 -214.222656 C 169.847656 -214.222656 182.28125 -210.21875 191.128906 -202.207031 C 199.976562 -194.195312 205.933594 -182.664062 209 -167.617188 L 213.179688 -166.988281 C 214.015625 -162.949219 214.675781 -158.734375 215.164062 -154.34375 C 215.652344 -149.957031 215.894531 -145.324219 215.894531 -140.445312 C 215.894531 -131.25 215.894531 -122.71875 215.894531 -114.84375 C 215.894531 -106.972656 215.894531 -98.785156 215.894531 -90.289062 C 215.894531 -73.289062 215.894531 -57.71875 215.894531 -43.578125 C 215.894531 -29.433594 215.894531 -14.910156 215.894531 0 L 153.40625 0 C 153.40625 -14.910156 153.40625 -29.328125 153.40625 -43.261719 C 153.40625 -57.195312 153.40625 -71.757812 153.40625 -86.945312 L 153.40625 -120.382812 C 153.40625 -132.644531 151.488281 -141.875 147.65625 -148.074219 C 143.824219 -154.277344 137.035156 -157.375 127.28125 -157.375 C 121.566406 -157.375 116.34375 -156.121094 111.605469 -153.613281 C 106.867188 -151.105469 102.546875 -147.796875 98.648438 -143.6875 C 94.746094 -139.578125 91.261719 -135.082031 88.199219 -130.207031 L 88.199219 -86.945312 C 88.199219 -71.339844 88.199219 -56.671875 88.199219 -42.949219 C 88.199219 -29.226562 88.199219 -14.910156 88.199219 0 Z M 280.265625 0 C 280.265625 -14.910156 280.265625 -29.328125 280.265625 -43.261719 C 280.265625 -57.195312 280.265625 -71.757812 280.265625 -86.945312 L 280.265625 -120.382812 C 280.265625 -132.644531 278.386719 -141.875 274.625 -148.074219 C 270.863281 -154.277344 264.035156 -157.375 254.140625 -157.375 C 248.429688 -157.375 243.203125 -156.15625 238.46875 -153.71875 C 233.730469 -151.28125 229.375 -148.007812 225.40625 -143.894531 C 221.433594 -139.785156 217.917969 -135.222656 214.851562 -130.207031 L 205.445312 -175.140625 L 210.878906 -175.140625 C 215.894531 -181.96875 221.746094 -188.378906 228.4375 -194.367188 C 235.125 -200.359375 242.820312 -205.167969 251.53125 -208.789062 C 260.238281 -212.414062 270.027344 -214.222656 280.894531 -214.222656 C 301.65625 -214.222656 317.15625 -207.988281 327.398438 -195.519531 C 337.636719 -183.046875 342.757812 -164.691406 342.757812 -140.445312 C 342.757812 -131.25 342.757812 -122.71875 342.757812 -114.84375 C 342.757812 -106.972656 342.757812 -98.785156 342.757812 -90.289062 C 342.757812 -73.289062 342.757812 -57.71875 342.757812 -43.578125 C 342.757812 -29.433594 342.757812 -14.910156 342.757812 0 Z M 280.265625 0 "/></g></g></g><g fill="#272727" fill-opacity="1"><g transform="translate(1119.607921, 546.292142)"><g><path d="M 26.960938 0 C 26.960938 -14.910156 26.960938 -29.363281 26.960938 -43.367188 C 26.960938 -57.371094 26.960938 -73.011719 26.960938 -90.289062 L 26.960938 -111.1875 C 26.960938 -124.980469 26.960938 -137.347656 26.960938 -148.285156 C 26.960938 -159.222656 26.960938 -169.53125 26.960938 -179.214844 C 26.960938 -188.898438 26.960938 -198.6875 26.960938 -208.582031 L 89.453125 -210.460938 C 89.453125 -200.429688 89.453125 -190.46875 89.453125 -180.574219 C 89.453125 -170.683594 89.453125 -160.164062 89.453125 -149.015625 C 89.453125 -137.871094 89.453125 -125.261719 89.453125 -111.1875 L 89.453125 -90.289062 C 89.453125 -73.011719 89.453125 -57.371094 89.453125 -43.367188 C 89.453125 -29.363281 89.453125 -14.910156 89.453125 0 Z M 57.683594 -240.765625 C 46.117188 -240.765625 36.886719 -243.519531 29.992188 -249.023438 C 23.09375 -254.527344 19.644531 -263.476562 19.644531 -275.878906 C 19.644531 -287.023438 23.09375 -295.558594 29.992188 -301.480469 C 36.886719 -307.402344 46.257812 -310.363281 58.101562 -310.363281 C 69.945312 -310.363281 79.246094 -307.261719 86.003906 -301.0625 C 92.761719 -294.863281 96.140625 -286.46875 96.140625 -275.878906 C 96.140625 -263.476562 92.726562 -254.527344 85.898438 -249.023438 C 79.070312 -243.519531 69.667969 -240.765625 57.683594 -240.765625 Z M 57.683594 -240.765625 "/></g></g></g><g fill="#272727" fill-opacity="1"><g transform="translate(1205.506446, 546.292142)"><g><path d="M 125.816406 5.644531 C 106.867188 5.644531 90.390625 2.648438 76.390625 -3.34375 C 62.386719 -9.335938 50.820312 -17.484375 41.695312 -27.796875 C 32.570312 -38.109375 25.742188 -49.914062 21.214844 -63.222656 C 16.683594 -76.527344 14.421875 -90.425781 14.421875 -104.917969 C 14.421875 -125.679688 18.636719 -144.3125 27.066406 -160.824219 C 35.496094 -177.335938 47.894531 -190.363281 64.265625 -199.90625 C 80.640625 -209.453125 100.738281 -214.222656 124.5625 -214.222656 C 142.957031 -214.222656 159.082031 -211.472656 172.945312 -205.96875 C 186.808594 -200.464844 198.375 -192.730469 207.640625 -182.769531 C 216.90625 -172.808594 223.835938 -161.171875 228.4375 -147.867188 C 233.035156 -134.558594 235.332031 -120.242188 235.332031 -104.917969 C 235.332031 -83.878906 231.082031 -65.035156 222.582031 -48.382812 C 214.085938 -31.734375 201.683594 -18.566406 185.382812 -8.882812 C 169.078125 0.800781 149.226562 5.644531 125.816406 5.644531 Z M 125.609375 -45.351562 C 136.058594 -45.351562 144.660156 -48.175781 151.417969 -53.816406 C 158.175781 -59.460938 163.261719 -66.808594 166.675781 -75.867188 C 170.089844 -84.921875 171.796875 -94.605469 171.796875 -104.917969 C 171.796875 -117.179688 169.847656 -127.664062 165.945312 -136.371094 C 162.042969 -145.078125 156.609375 -151.734375 149.644531 -156.332031 C 142.675781 -160.929688 134.59375 -163.226562 125.398438 -163.226562 C 115.089844 -163.226562 106.414062 -160.648438 99.378906 -155.496094 C 92.34375 -150.339844 87.046875 -143.375 83.496094 -134.59375 C 79.941406 -125.816406 78.164062 -115.925781 78.164062 -104.917969 C 78.164062 -94.605469 79.941406 -84.921875 83.496094 -75.867188 C 87.046875 -66.808594 92.34375 -59.460938 99.378906 -53.816406 C 106.414062 -48.175781 115.160156 -45.351562 125.609375 -45.351562 Z M 125.609375 -45.351562 "/></g></g></g></svg>