<svg xmlns="http://www.w3.org/2000/svg" xmlns:xlink="http://www.w3.org/1999/xlink" width="500" zoomAndPan="magnify" viewBox="0 0 375 374.999991" height="500" preserveAspectRatio="xMidYMid meet" version="1.0"><rect x="-37.5" width="450" fill="#ffffff" y="-37.499999" height="449.999989" fill-opacity="1"/><rect x="-37.5" width="450" fill="#ffffff" y="-37.499999" height="449.999989" fill-opacity="1"/><rect x="-37.5" width="450" fill="#ffffff" y="-37.499999" height="449.999989" fill-opacity="1"/><path fill="#373737" d="M 219.949219 94.847656 C 223.996094 76.976562 227.789062 60.621094 231.332031 44.203125 C 232.214844 40.097656 233.796875 38.582031 238.160156 38.644531 C 269.082031 38.835938 300.003906 38.898438 330.925781 38.707031 C 335.796875 38.707031 336.492188 40.601562 336.492188 44.769531 C 336.363281 116.195312 336.363281 187.617188 336.492188 259.101562 C 336.492188 263.902344 335.289062 265.542969 330.292969 265.417969 C 316.257812 264.976562 302.15625 264.660156 288.117188 265.101562 C 281.285156 265.292969 279.960938 262.957031 280.023438 256.640625 C 280.273438 205.804688 280.023438 154.96875 280.339844 104.132812 C 280.402344 97.121094 279.074219 94.46875 271.359375 94.785156 C 254.476562 95.289062 237.65625 94.847656 219.949219 94.847656 Z M 219.949219 94.847656 " fill-opacity="1" fill-rule="nonzero"/><path fill="#edbcc2" d="M 336.492188 284.804688 C 336.554688 279.816406 335.417969 277.605469 329.851562 277.605469 C 315.8125 277.667969 301.773438 277.289062 287.738281 276.722656 C 282.488281 276.53125 279.074219 277.480469 280.148438 283.730469 C 281.351562 290.804688 277.554688 291.6875 271.546875 291.6875 C 211.917969 291.5625 152.285156 291.5 92.59375 291.878906 C 84.5 291.941406 82.726562 289.351562 82.917969 281.835938 C 83.425781 259.417969 83.042969 236.9375 83.109375 214.457031 C 83.234375 174.542969 83.425781 134.632812 83.613281 94.722656 C 119.214844 94.785156 154.816406 94.722656 190.417969 94.910156 C 194.972656 94.910156 198.007812 94.40625 199.144531 89.164062 C 202.242188 74.261719 205.65625 59.359375 209.199219 44.519531 C 210.273438 39.972656 209.386719 38.519531 204.519531 38.582031 C 147.355469 38.707031 90.253906 38.707031 33.089844 38.582031 C 27.964844 38.582031 26.765625 40.476562 26.890625 45.148438 C 27.207031 59.167969 27.144531 73.1875 27.269531 87.207031 C 27.144531 87.839844 26.953125 88.40625 26.953125 89.039062 C 27.019531 172.902344 27.082031 256.828125 26.953125 340.695312 C 26.953125 346.757812 29.230469 347.894531 34.667969 347.828125 C 59.964844 347.578125 85.257812 347.703125 110.550781 347.703125 C 182.703125 347.765625 254.855469 347.640625 326.941406 348.019531 C 334.910156 348.082031 336.871094 345.746094 336.617188 338.105469 C 335.984375 320.359375 336.238281 302.550781 336.492188 284.804688 Z M 336.492188 284.804688 " fill-opacity="1" fill-rule="nonzero"/></svg>
